<svg preserveAspectRatio="none" width="100%" height="100%" overflow="visible" style="display: block;" viewBox="0 0 10 10" fill="none" xmlns="http://www.w3.org/2000/svg">
<path id="Star 3" d="M4.71841 0.766389C4.81469 0.504343 5.18531 0.504343 5.28159 0.766389L5.86487 2.35385C6.1685 3.18021 6.81979 3.8315 7.64615 4.13513L9.23361 4.71841C9.49566 4.81469 9.49566 5.18531 9.23361 5.28159L7.64615 5.86487C6.81979 6.1685 6.1685 6.81979 5.86487 7.64615L5.28159 9.23361C5.18531 9.49566 4.81469 9.49566 4.71841 9.23361L4.13513 7.64615C3.8315 6.81979 3.18021 6.1685 2.35385 5.86487L0.766389 5.28159C0.504343 5.18531 0.504343 4.81469 0.766389 4.71841L2.35385 4.13513C3.18021 3.8315 3.8315 3.18021 4.13513 2.35385L4.71841 0.766389Z" fill="var(--fill-0, black)"/>
</svg>
