<svg preserveAspectRatio="none" width="100%" height="100%" overflow="visible" style="display: block;" viewBox="0 0 22 23" fill="none" xmlns="http://www.w3.org/2000/svg">
<g id="Group 4">
<path id="Rectangle 1436" d="M2.97852 6.30039H19.0215C19.6022 6.30059 20.0829 6.75203 20.1191 7.33164L20.8359 18.8063C20.9475 20.5909 19.5303 22.1002 17.7422 22.1002H4.25781C2.46967 22.1002 1.05252 20.5909 1.16406 18.8063L1.88086 7.33164C1.91708 6.75203 2.39782 6.30059 2.97852 6.30039Z" stroke="var(--stroke-0, black)" stroke-width="1.8"/>
<path id="Ellipse 71" d="M14.3 9.90002C14.3 11.7226 12.8225 13.2 11 13.2C9.17746 13.2 7.7 11.7226 7.7 9.90002" stroke="var(--stroke-0, black)" stroke-width="1.8" stroke-linecap="round"/>
<path id="Ellipse 72" d="M14.3 5.95V4.3C14.3 2.47746 12.8225 1 11 1C9.17746 1 7.7 2.47746 7.7 4.3V5.95" stroke="var(--stroke-0, black)" stroke-width="1.8" stroke-linecap="round"/>
</g>
</svg>
