<svg preserveAspectRatio="none" width="100%" height="100%" overflow="visible" style="display: block;" viewBox="0 0 12 12" fill="none" xmlns="http://www.w3.org/2000/svg">
<path id="Star 4" d="M5.71841 0.766389C5.81469 0.504343 6.18531 0.504343 6.28159 0.766389L7.13357 3.08515C7.4372 3.91151 8.08849 4.5628 8.91485 4.86643L11.2336 5.71841C11.4957 5.81469 11.4957 6.18531 11.2336 6.28159L8.91485 7.13357C8.08849 7.4372 7.4372 8.08849 7.13357 8.91485L6.28159 11.2336C6.18531 11.4957 5.81469 11.4957 5.71841 11.2336L4.86643 8.91485C4.5628 8.08849 3.91151 7.4372 3.08515 7.13357L0.766389 6.28159C0.504343 6.18531 0.504343 5.81469 0.766389 5.71841L3.08515 4.86643C3.91151 4.5628 4.5628 3.91151 4.86643 3.08515L5.71841 0.766389Z" fill="var(--fill-0, black)"/>
</svg>
