<svg preserveAspectRatio="none" width="100%" height="100%" overflow="visible" style="display: block;" viewBox="0 0 22 22" fill="none" xmlns="http://www.w3.org/2000/svg">
<path id="Union" d="M10.3467 0.189453C10.6945 -0.0820822 11.1957 -0.0626088 11.5215 0.248047L21.5215 9.78418C21.6994 9.95394 21.8007 10.1896 21.8008 10.4355V20.8994C21.8008 21.3963 21.3973 21.7996 20.9004 21.7998H13.9004V20.8994H13.8984V15.7979C13.8983 14.1421 12.5561 12.8 10.9004 12.7998C9.2445 12.7998 7.90251 14.142 7.90234 15.7979V20.8994H7.90039V21.7998H0.900391C0.403334 21.7998 0 21.3965 0 20.8994V10.4355C8.45545e-05 10.1896 0.10136 9.95394 0.279297 9.78418L10.2793 0.248047L10.3467 0.189453ZM1.80078 10.8203V19.999H6.10156V15.7979C6.10173 13.1479 8.25039 10.999 10.9004 10.999C13.5502 10.9992 15.6991 13.148 15.6992 15.7979V19.999H20V10.8203L10.9004 2.14258L1.80078 10.8203Z" fill="var(--fill-0, #C4C4C4)"/>
</svg>
