<svg preserveAspectRatio="none" width="100%" height="100%" overflow="visible" style="display: block;" viewBox="0 0 16 16" fill="none" xmlns="http://www.w3.org/2000/svg">
<g id="Verified badge" clip-path="url(#clip0_51_762)">
<path id="Star 2" d="M5.56193 0.980377C5.67545 0.653697 6.07839 0.538156 6.34778 0.755038L7.57038 1.73934C7.75855 1.89084 8.02812 1.88613 8.21089 1.72816L9.39839 0.701789C9.66004 0.475638 10.0668 0.577047 10.1916 0.899566L10.7583 2.3633C10.8455 2.58858 11.0813 2.71929 11.3186 2.67387L12.8602 2.37876C13.1998 2.31373 13.5014 2.60492 13.4482 2.94665L13.2071 4.49761C13.17 4.73632 13.3088 4.96742 13.537 5.04672L15.0197 5.56194C15.3463 5.67546 15.4619 6.0784 15.245 6.34779L14.2607 7.57039C14.1092 7.75856 14.1139 8.02813 14.2719 8.2109L15.2982 9.3984C15.5244 9.66006 15.423 10.0668 15.1005 10.1916L13.6367 10.7583C13.4114 10.8455 13.2807 11.0813 13.3262 11.3186L13.6213 12.8602C13.6863 13.1998 13.3951 13.5014 13.0534 13.4482L11.5024 13.2071C11.2637 13.17 11.0326 13.3089 10.9533 13.537L10.4381 15.0197C10.3246 15.3463 9.92163 15.4619 9.65224 15.245L8.42964 14.2607C8.24147 14.1092 7.9719 14.1139 7.78913 14.2719L6.60163 15.2983C6.33998 15.5244 5.93325 15.423 5.80839 15.1005L5.24175 13.6367C5.15453 13.4115 4.91872 13.2807 4.68146 13.3262L3.13986 13.6213C2.80019 13.6863 2.49865 13.3951 2.55179 13.0534L2.79292 11.5024C2.83003 11.2637 2.69117 11.0326 2.46298 10.9533L0.980364 10.4381C0.653685 10.3246 0.538144 9.92164 0.755026 9.65226L1.73933 8.42966C1.89083 8.24149 1.88612 7.97191 1.72815 7.78914L0.701777 6.60164C0.475625 6.33999 0.577034 5.93326 0.899553 5.80841L2.36329 5.24176C2.58857 5.15455 2.71928 4.91873 2.67386 4.68147L2.37874 3.13987C2.31372 2.8002 2.60491 2.49867 2.94664 2.5518L4.4976 2.79293C4.7363 2.83005 4.96741 2.69119 5.04671 2.46299L5.56193 0.980377Z" fill="var(--fill-0, #1FA1FF)"/>
<path id="Vector 16" d="M5 8L7 10L11 6" stroke="var(--stroke-0, white)"/>
</g>
<defs>
<clipPath id="clip0_51_762">
<rect width="16" height="16" fill="white"/>
</clipPath>
</defs>
</svg>
