<svg preserveAspectRatio="none" width="100%" height="100%" overflow="visible" style="display: block;" viewBox="0 0 23 20" fill="none" xmlns="http://www.w3.org/2000/svg">
<path id="Vector" d="M13.002 2.42676C14.8649 0.732937 17.2779 0.459446 19.0996 1.55469C21.0143 2.70675 22.0205 5.17248 21.4326 7.53906V7.54004C20.8747 9.78771 19.5094 11.6029 17.8506 13.3975C15.8957 15.5122 13.6309 17.2977 11.2539 19.0283C8.20074 16.7958 5.32529 14.5207 3.12109 11.5801L2.67676 10.9648L2.30469 10.4072C1.47642 9.10259 0.930513 7.76852 0.901367 6.28809C0.858732 4.12604 2.0417 2.18801 3.76465 1.35742L3.93262 1.28027C5.74193 0.499061 8.00088 0.953862 9.6416 2.56152C9.96337 2.877 10.2943 3.19503 10.6641 3.55371L11.3145 4.18359L11.9404 3.53027C12.2561 3.20101 12.4912 2.93051 12.7422 2.67676L13.002 2.42676Z" stroke="var(--stroke-0, white)" stroke-width="1.8"/>
</svg>
