<svg preserveAspectRatio="none" width="100%" height="100%" overflow="visible" style="display: block;" viewBox="0 0 19 23" fill="none" xmlns="http://www.w3.org/2000/svg">
<g id="Group 3">
<path id="Rectangle 1428 (Stroke)" fill-rule="evenodd" clip-rule="evenodd" d="M15.3437 6.96783H3.65632C2.9904 6.96783 2.43925 7.46764 2.39771 8.10921L1.90045 15.7895C1.74164 18.2423 3.75965 20.3159 6.30559 20.3159H12.6944C15.2404 20.3159 17.2584 18.2423 17.0996 15.7895L16.6023 8.10922C16.5607 7.46764 16.0096 6.96783 15.3437 6.96783ZM3.65632 5.14185C1.99152 5.14185 0.613644 6.39138 0.509796 7.99531L0.0125305 15.6756C-0.214343 19.1796 2.66854 22.1418 6.30559 22.1418H12.6944C16.3315 22.1418 19.2143 19.1796 18.9875 15.6756L18.4902 7.99531C18.3864 6.39139 17.0085 5.14185 15.3437 5.14185H3.65632Z" fill="var(--fill-0, black)"/>
<path id="Vector 5 (Stroke)" fill-rule="evenodd" clip-rule="evenodd" d="M9.77609 1.8C8.58117 1.8 7.6125 2.76867 7.6125 3.96359V5.1419H5.8125V3.96359C5.8125 1.77456 7.58706 0 9.77609 0C11.9651 0 13.7397 1.77456 13.7397 3.96359V5.1419H11.9397V3.96359C11.9397 2.76867 10.971 1.8 9.77609 1.8Z" fill="var(--fill-0, black)"/>
<path id="Vector 6 (Stroke)" fill-rule="evenodd" clip-rule="evenodd" d="M9.77567 11.3117C10.9706 11.3117 11.9393 10.3431 11.9393 9.14814L11.9393 8.91247C11.9393 8.41542 12.3422 8.01247 12.8393 8.01247C13.3363 8.01247 13.7393 8.41542 13.7393 8.91247L13.7393 9.14814C13.7393 11.3372 11.9647 13.1117 9.77567 13.1117C7.58664 13.1117 5.81208 11.3372 5.81208 9.14814L5.81208 8.91247C5.81208 8.41542 6.21502 8.01247 6.71208 8.01247C7.20913 8.01247 7.61208 8.41542 7.61208 8.91247L7.61208 9.14814C7.61208 10.3431 8.58075 11.3117 9.77567 11.3117Z" fill="var(--fill-0, black)"/>
</g>
</svg>
