<svg preserveAspectRatio="none" width="100%" height="100%" overflow="visible" style="display: block;" viewBox="0 0 22 22" fill="none" xmlns="http://www.w3.org/2000/svg">
<g id="Union">
<mask id="path-1-inside-1_51_1018" fill="white">
<path d="M11 0C17.0751 0 22 4.92487 22 11C22 13.0572 21.4331 14.9811 20.4502 16.6279L21.8477 21.8408L16.6377 20.4443C14.9887 21.4308 13.0612 22 11 22C4.92487 22 0 17.0751 0 11C0 4.92487 4.92487 0 11 0Z"/>
</mask>
<path d="M20.4502 16.6279L18.9045 15.7055C18.6552 16.1232 18.5856 16.6241 18.7116 17.094L20.4502 16.6279ZM21.8477 21.8408L21.3816 23.5794C22.0028 23.746 22.6657 23.5684 23.1205 23.1136C23.5752 22.6588 23.7528 21.9959 23.5863 21.3747L21.8477 21.8408ZM16.6377 20.4443L17.1037 18.7057C16.6332 18.5796 16.1317 18.6496 15.7136 18.8996L16.6377 20.4443ZM11 0V1.8C16.081 1.8 20.2 5.91898 20.2 11H22H23.8C23.8 3.93076 18.0692 -1.8 11 -1.8V0ZM22 11H20.2C20.2 12.7219 19.7264 14.3284 18.9045 15.7055L20.4502 16.6279L21.9958 17.5504C23.1397 15.6338 23.8 13.3925 23.8 11H22ZM20.4502 16.6279L18.7116 17.094L20.109 22.3069L21.8477 21.8408L23.5863 21.3747L22.1888 16.1618L20.4502 16.6279ZM21.8477 21.8408L22.3137 20.1022L17.1037 18.7057L16.6377 20.4443L16.1717 22.183L21.3816 23.5794L21.8477 21.8408ZM16.6377 20.4443L15.7136 18.8996C14.3347 19.7245 12.7253 20.2 11 20.2V22V23.8C13.3972 23.8 15.6427 23.1371 17.5618 21.989L16.6377 20.4443ZM11 22V20.2C5.91898 20.2 1.8 16.081 1.8 11H0H-1.8C-1.8 18.0692 3.93076 23.8 11 23.8V22ZM0 11H1.8C1.8 5.91898 5.91898 1.8 11 1.8V0V-1.8C3.93076 -1.8 -1.8 3.93076 -1.8 11H0Z" fill="var(--stroke-0, black)" mask="url(#path-1-inside-1_51_1018)"/>
</g>
</svg>
