<svg preserveAspectRatio="none" width="100%" height="100%" overflow="visible" style="display: block;" viewBox="0 0 14 14" fill="none" xmlns="http://www.w3.org/2000/svg">
<path id="Star 5" d="M6.71841 0.76639C6.81469 0.504344 7.18531 0.504343 7.28159 0.766389L8.40227 3.81645C8.7059 4.64281 9.35719 5.2941 10.1836 5.59773L13.2336 6.71841C13.4957 6.81469 13.4957 7.18531 13.2336 7.28159L10.1836 8.40227C9.35719 8.7059 8.7059 9.35719 8.40227 10.1836L7.28159 13.2336C7.18531 13.4957 6.81469 13.4957 6.71841 13.2336L5.59773 10.1836C5.2941 9.35719 4.64281 8.7059 3.81645 8.40227L0.76639 7.28159C0.504344 7.18531 0.504343 6.81469 0.766389 6.71841L3.81645 5.59773C4.64281 5.2941 5.2941 4.64281 5.59773 3.81645L6.71841 0.76639Z" fill="var(--fill-0, #C4C4C4)"/>
</svg>
