<svg preserveAspectRatio="none" width="100%" height="100%" overflow="visible" style="display: block;" viewBox="0 0 14 7" fill="none" xmlns="http://www.w3.org/2000/svg">
<path id="Vector" d="M5.02481 0.461952C5.09716 0.47238 5.15745 0.482808 5.2298 0.493237C6.30296 0.722661 7.40025 1.70293 8.24431 2.28691C8.71457 2.62062 9.11249 2.58934 9.58275 2.27649C10.5836 1.58821 11.6206 0.931228 12.6455 0.253384C12.9228 0.0656737 13.2122 -0.132465 13.5498 0.117816C13.9236 0.388953 13.6945 0.680947 13.5016 0.952085C12.4887 2.34949 11.4879 3.74689 10.463 5.13386C9.76362 6.09327 8.77486 6.22884 7.71376 5.55099C6.97821 5.07129 6.21856 4.62287 5.49508 4.12231C5.01275 3.7886 4.61484 3.83031 4.15663 4.14316C3.14376 4.83144 2.11882 5.48842 1.09389 6.16627C0.816555 6.35398 0.527162 6.55212 0.189537 6.29141C-0.148088 6.04113 0.0327826 5.75956 0.213653 5.49885C1.2627 4.05974 2.29969 2.62062 3.34874 1.18151C3.69843 0.691375 4.34956 0.399381 5.02481 0.461952Z" fill="var(--fill-0, black)"/>
</svg>
