<svg preserveAspectRatio="none" width="100%" height="100%" overflow="visible" style="display: block;" viewBox="0 0 21 21" fill="none" xmlns="http://www.w3.org/2000/svg">
<path id="Exclude" d="M21 15C21 18.3137 18.3137 21 15 21H6C2.68629 21 1.44962e-07 18.3137 0 15V7.54102H21V15ZM8.38086 9.61523C8.04996 9.41802 7.63675 9.66419 7.63672 10.0586V16.2705C7.63672 16.6649 8.04997 16.912 8.38086 16.7148L13.5928 13.6084C13.9236 13.4111 13.9237 12.9179 13.5928 12.7207L8.38086 9.61523ZM0 6V5.82227H0.00488281C0.00316412 5.88132 0 5.94053 0 6ZM21 5.82227V6C21 5.94053 20.9968 5.88132 20.9951 5.82227H21ZM9.78613 0L13.668 5.82227H9.0498L5.2041 0.0537109C5.46456 0.0191834 5.73011 1.18064e-08 6 0H9.78613ZM6.98535 5.82227H0.00488281C0.0728511 3.48677 1.4735 1.4866 3.47461 0.556641L6.98535 5.82227ZM3.81152 0.413086C3.71757 0.449882 3.62477 0.488918 3.5332 0.530273C3.62478 0.488909 3.71757 0.449918 3.81152 0.413086ZM3.81152 0.413086C3.84021 0.401852 3.86857 0.389707 3.89746 0.378906C3.86856 0.389719 3.84021 0.401842 3.81152 0.413086ZM4.03223 0.331055C4.06497 0.319705 4.09786 0.308646 4.13086 0.297852C4.09786 0.308663 4.06497 0.319689 4.03223 0.331055ZM4.71777 0.138672C4.51826 0.182036 4.32242 0.235196 4.13086 0.297852C4.32243 0.235094 4.51824 0.182119 4.71777 0.138672ZM4.71777 0.138672C4.7305 0.135907 4.74311 0.132568 4.75586 0.129883C4.7431 0.132573 4.7305 0.135901 4.71777 0.138672ZM4.89551 0.102539C4.9338 0.0954225 4.97219 0.0884202 5.01074 0.0820312C4.97219 0.0884285 4.93381 0.0954103 4.89551 0.102539ZM15 0C18.2542 0 20.9011 2.5908 20.9951 5.82227H15.7334L11.8506 0H15Z" fill="var(--fill-0, white)"/>
</svg>
