<svg preserveAspectRatio="none" width="100%" height="100%" overflow="visible" style="display: block;" viewBox="0 0 22 22" fill="none" xmlns="http://www.w3.org/2000/svg">
<g id="Union">
<mask id="path-1-inside-1_51_1098" fill="white">
<path d="M10.7842 0.0917249C10.9021 -0.030575 11.0979 -0.030575 11.2158 0.0917249L13.8857 2.86712H20C21.1045 2.86712 21.9999 3.76261 22 4.86712V19.8671C22 20.9717 21.1046 21.8671 20 21.8671H2C0.895431 21.8671 0 20.9717 0 19.8671V4.86712C7.92716e-05 3.76261 0.895479 2.86712 2 2.86712H8.11426L10.7842 0.0917249Z"/>
</mask>
<path d="M10.7842 0.0917249L9.48862 -1.15789L9.48698 -1.15618L10.7842 0.0917249ZM11.2158 0.0917249L12.513 -1.15618L12.5114 -1.15789L11.2158 0.0917249ZM13.8857 2.86712L12.5885 4.11502C12.9279 4.46777 13.3963 4.66712 13.8857 4.66712V2.86712ZM22 4.86712L23.8 4.86712L23.8 4.86699L22 4.86712ZM20 21.8671L20 23.6671H20L20 21.8671ZM0 4.86712L-1.8 4.86699V4.86712H0ZM2 2.86712L2 1.06712L2 1.06712L2 2.86712ZM8.11426 2.86712V4.66712C8.60374 4.66712 9.07211 4.46777 9.41146 4.11502L8.11426 2.86712ZM10.7842 0.0917249L12.0797 1.34134C11.4899 1.95289 10.5101 1.95289 9.92026 1.34134L11.2158 0.0917249L12.5114 -1.15789C11.6856 -2.01404 10.3144 -2.01404 9.48862 -1.15789L10.7842 0.0917249ZM11.2158 0.0917249L9.91862 1.33963L12.5885 4.11502L13.8857 2.86712L15.1829 1.61921L12.513 -1.15618L11.2158 0.0917249ZM13.8857 2.86712V4.66712H20V2.86712V1.06712H13.8857V2.86712ZM20 2.86712V4.66712C20.1103 4.66712 20.2 4.75663 20.2 4.86724L22 4.86712L23.8 4.86699C23.7998 2.7686 22.0988 1.06712 20 1.06712V2.86712ZM22 4.86712H20.2V19.8671H22H23.8V4.86712H22ZM22 19.8671H20.2C20.2 19.9776 20.1105 20.0671 20 20.0671L20 21.8671L20 23.6671C22.0987 23.6671 23.8 21.9658 23.8 19.8671H22ZM20 21.8671V20.0671H2V21.8671V23.6671H20V21.8671ZM2 21.8671V20.0671C1.88954 20.0671 1.8 19.9776 1.8 19.8671H0H-1.8C-1.8 21.9658 -0.098682 23.6671 2 23.6671V21.8671ZM0 19.8671H1.8V4.86712H0H-1.8V19.8671H0ZM0 4.86712L1.8 4.86724C1.80001 4.75663 1.88972 4.66712 2 4.66712L2 2.86712L2 1.06712C-0.0987617 1.06712 -1.79985 2.7686 -1.8 4.86699L0 4.86712ZM2 2.86712V4.66712H8.11426V2.86712V1.06712H2V2.86712ZM8.11426 2.86712L9.41146 4.11502L12.0814 1.33963L10.7842 0.0917249L9.48698 -1.15618L6.81706 1.61921L8.11426 2.86712Z" fill="var(--stroke-0, #C4C4C4)" mask="url(#path-1-inside-1_51_1098)"/>
</g>
</svg>
