<svg preserveAspectRatio="none" width="100%" height="100%" overflow="visible" style="display: block;" viewBox="0 0 12 12" fill="none" xmlns="http://www.w3.org/2000/svg">
<g id="add reactions button">
<rect x="0.4" y="0.4" width="11.2" height="11.2" rx="5.6" fill="var(--fill-0, black)"/>
<rect x="0.4" y="0.4" width="11.2" height="11.2" rx="5.6" stroke="var(--stroke-0, #6E6E6E)" stroke-width="0.8"/>
<path id="Union" d="M6 3C6.27614 3 6.5 3.22386 6.5 3.5V5.5H8.5C8.77614 5.5 9 5.72386 9 6C9 6.27614 8.77614 6.5 8.5 6.5H6.5V8.5C6.5 8.77614 6.27614 9 6 9C5.72386 9 5.5 8.77614 5.5 8.5V6.5H3.5C3.22386 6.5 3 6.27614 3 6C3 5.72386 3.22386 5.5 3.5 5.5H5.5V3.5C5.5 3.22386 5.72386 3 6 3Z" fill="var(--fill-0, #6E6E6E)"/>
</g>
</svg>
