<svg preserveAspectRatio="none" width="100%" height="100%" overflow="visible" style="display: block;" viewBox="0 0 25 13" fill="none" xmlns="http://www.w3.org/2000/svg">
<path id="Subtract" d="M11.5723 1.05469H4C2.37357 1.05469 1.05469 2.37357 1.05469 4V9C1.05469 10.6264 2.37357 11.9453 4 11.9453H9.08594C8.98191 12.2303 8.91486 12.6049 9.04102 13H4C1.79086 13 1.2776e-07 11.2091 0 9V4C0 1.79086 1.79086 0 4 0H12.4307L11.5723 1.05469ZM21 0C23.2091 4.62576e-07 25 1.79086 25 4V9C25 11.2091 23.2091 13 21 13H11.9492L12.8086 11.9453H21C22.6264 11.9453 23.9453 10.6264 23.9453 9V4C23.9453 2.37357 22.6264 1.05469 21 1.05469H15.291C15.3964 0.77742 15.4705 0.399632 15.3379 0H21ZM11.5195 11.9453L10.8701 12.7422C10.7653 12.8731 10.6508 12.9535 10.5273 12.9834C10.4075 13.0134 10.2985 13.0027 10.2012 12.9502C10.104 12.8978 10.0353 12.8132 9.99414 12.6973C9.9567 12.5813 9.96743 12.4422 10.0273 12.2812L10.1533 11.9453H11.5195ZM13.8516 0.0166016C13.9751 -0.0133484 14.0863 -0.00261531 14.1836 0.0498047C14.2808 0.102222 14.3483 0.18674 14.3857 0.302734C14.4269 0.415036 14.4152 0.551937 14.3516 0.712891L14.2236 1.05469H12.8613L13.5146 0.251953C13.6194 0.1248 13.7319 0.0466204 13.8516 0.0166016Z" fill="var(--fill-0, white)" fill-opacity="0.35"/>
</svg>
