<svg preserveAspectRatio="none" width="100%" height="100%" overflow="visible" style="display: block;" viewBox="0 0 9 13" fill="none" xmlns="http://www.w3.org/2000/svg">
<path id="SF Sybol / bolt.fill" d="M0 7.21604C0 7.33959 0.0430559 7.44255 0.129168 7.52492C0.21528 7.60354 0.321984 7.64286 0.449279 7.64286H3.76833L2.02737 12.2817C1.96747 12.4427 1.95624 12.5812 1.99368 12.6972C2.03486 12.8133 2.10413 12.8976 2.20147 12.95C2.29881 13.0024 2.40739 13.0136 2.5272 12.9837C2.65075 12.9537 2.76494 12.8732 2.86977 12.7422L8.22181 6.17147C8.32665 6.04043 8.37906 5.90939 8.37906 5.77835C8.37906 5.65479 8.33601 5.55371 8.24989 5.47508C8.16753 5.39271 8.06082 5.35153 7.92978 5.35153H4.61635L6.35169 0.712721C6.41534 0.551729 6.42657 0.415073 6.38538 0.302753C6.34794 0.186689 6.28055 0.102449 6.18321 0.0500334C6.08586 -0.00238254 5.97542 -0.0136145 5.85186 0.0163374C5.73206 0.0462894 5.61974 0.124913 5.51491 0.252209L0.162864 6.82854C0.0542879 6.95958 0 7.08874 0 7.21604Z" fill="var(--fill-0, white)"/>
</svg>
