<svg preserveAspectRatio="none" width="100%" height="100%" overflow="visible" style="display: block;" viewBox="0 0 17 12" fill="none" xmlns="http://www.w3.org/2000/svg">
<path id="SF Symbol / bed.double.fill" d="M1.59961 3.68799H3.29443V2.83105C3.29443 2.20898 3.63721 1.87256 4.26562 1.87256H6.60156C7.23633 1.87256 7.5791 2.20898 7.5791 2.83105V3.68799H9.00098V2.83105C9.00098 2.20898 9.34375 1.87256 10.0039 1.87256H12.2383C12.8984 1.87256 13.2412 2.20898 13.2412 2.83105V3.68799H14.936V1.86621C14.936 0.641113 14.2759 0 13.0698 0H3.46582C2.25977 0 1.59961 0.641113 1.59961 1.86621V3.68799ZM0 10.6069C0 10.9561 0.228516 11.1782 0.571289 11.1782H0.977539C1.32031 11.1782 1.54883 10.9561 1.54883 10.6069V9.70557C1.61865 9.73096 1.85352 9.74365 2.01855 9.74365H14.5044C14.6758 9.74365 14.9043 9.73096 14.9805 9.70557V10.6069C14.9805 10.9561 15.209 11.1782 15.5518 11.1782H15.9517C16.2944 11.1782 16.5229 10.9561 16.5229 10.6069V6.70312C16.5229 5.4082 15.812 4.70996 14.5107 4.70996H2.01855C0.710938 4.70996 0 5.4082 0 6.70312V10.6069Z" fill="var(--fill-0, black)"/>
</svg>
