<svg preserveAspectRatio="none" width="100%" height="100%" overflow="visible" style="display: block;" viewBox="0 0 16 9" fill="none" xmlns="http://www.w3.org/2000/svg">
<path id="Subtract" d="M5.38965 4.19434C5.18409 4.44372 5.00006 4.78967 5 5.21582C5 5.60078 5.14645 5.96846 5.4375 6.24707L5.44629 6.25586L5.45508 6.26367C5.74295 6.52642 6.09737 6.64256 6.44922 6.64258H8.3252L7.44043 9H2C0.895431 9 0 8.10457 0 7V2C0 0.895431 0.895431 8.05319e-09 2 0H8.80273L5.38965 4.19434ZM10.6162 3.35156H13.9297C14.0606 3.35156 14.1677 3.39237 14.25 3.47461C14.3361 3.55323 14.3789 3.65478 14.3789 3.77832C14.3789 3.90936 14.3265 4.04083 14.2217 4.17188L10.2891 9H8.50781L9.76855 5.64258H6.44922C6.322 5.64256 6.21499 5.60394 6.12891 5.52539C6.0428 5.44302 6 5.33937 6 5.21582C6.00006 5.08859 6.05457 4.95909 6.16309 4.82812L10.0918 0H11.8701L10.6162 3.35156ZM14 0C15.1046 0 16 0.895431 16 2V7C16 8.10457 15.1046 9 14 9H11.5781L14.9971 4.80273L15.0029 4.7959C15.209 4.53808 15.3789 4.19349 15.3789 3.77832C15.3789 3.3997 15.2363 3.03065 14.9404 2.75195C14.649 2.4696 14.2831 2.35156 13.9297 2.35156H12.0586L12.9375 0H14Z" fill="var(--fill-0, #30D158)"/>
</svg>
