<svg preserveAspectRatio="none" width="100%" height="100%" overflow="visible" style="display: block;" viewBox="0 0 5 8" fill="none" xmlns="http://www.w3.org/2000/svg">
<path id="SF Sybol / bolt.fill" d="M0 4.17135C0 4.24277 0.0248892 4.30229 0.0746676 4.3499C0.124446 4.39535 0.186128 4.41808 0.259713 4.41808H2.17835L1.17196 7.09962C1.13733 7.19268 1.13084 7.27276 1.15248 7.33985C1.17628 7.40695 1.21632 7.45564 1.2726 7.48594C1.32887 7.51624 1.39163 7.52273 1.46089 7.50542C1.53231 7.48811 1.59832 7.44157 1.65892 7.36582L4.75275 3.56752C4.81335 3.49177 4.84365 3.41602 4.84365 3.34027C4.84365 3.26885 4.81876 3.21041 4.76899 3.16496C4.72137 3.11735 4.65969 3.09354 4.58394 3.09354H2.66855L3.6717 0.412C3.70849 0.318936 3.71498 0.23994 3.69118 0.175011C3.66953 0.107919 3.63058 0.0592225 3.5743 0.0289226C3.51803 -0.00137727 3.45419 -0.0078701 3.38277 0.00944412C3.31351 0.0267583 3.24858 0.0722082 3.18798 0.145794L0.0941461 3.94735C0.031382 4.0231 0 4.09776 0 4.17135Z" fill="var(--fill-0, white)"/>
</svg>
